<?xml version="1.0" standalone="no"?>
<!DOCTYPE svg PUBLIC "-//W3C//DTD SVG 20010904//EN"
 "http://www.w3.org/TR/2001/REC-SVG-20010904/DTD/svg10.dtd">
<svg version="1.0" xmlns="http://www.w3.org/2000/svg"
 width="700.000000pt" height="700.000000pt" viewBox="0 0 700.000000 700.000000"
 preserveAspectRatio="xMidYMid meet">

<g transform="translate(0.000000,700.000000) scale(0.100000,-0.100000)"
fill="#000000" stroke="none">
<path d="M4220 6420 c-62 -12 -115 -47 -190 -127 -232 -249 -408 -581 -509
-963 -35 -135 -63 -326 -59 -406 3 -49 7 -60 30 -77 36 -27 108 -27 169 0 44
20 45 21 57 87 58 315 348 709 713 969 136 96 163 147 140 256 -13 61 -74 155
-125 195 -71 54 -157 79 -226 66z"/>
<path d="M2810 6102 c0 -12 19 -26 26 -19 2 2 -2 10 -11 17 -9 8 -15 8 -15 2z"/>
<path d="M2850 6076 c0 -2 7 -7 16 -10 8 -3 12 -2 9 4 -6 10 -25 14 -25 6z"/>
<path d="M2950 6026 c0 -3 9 -10 20 -16 11 -6 20 -8 20 -6 0 3 -9 10 -20 16
-11 6 -20 8 -20 6z"/>
<path d="M3060 5956 c0 -2 8 -10 18 -17 15 -13 16 -12 3 4 -13 16 -21 21 -21
13z"/>
<path d="M2960 5676 c0 -2 8 -10 18 -17 15 -13 16 -12 3 4 -13 16 -21 21 -21
13z"/>
<path d="M3195 5400 c-3 -5 -1 -10 4 -10 6 0 11 5 11 10 0 6 -2 10 -4 10 -3 0
-8 -4 -11 -10z"/>
<path d="M4052 5268 c-54 -71 -156 -256 -147 -266 2 -2 20 5 42 16 63 32 201
72 321 93 149 25 158 24 89 -11 -75 -38 -184 -111 -330 -222 -155 -117 -256
-182 -314 -203 -26 -9 -88 -19 -138 -22 -106 -6 -171 8 -303 66 -157 69 -212
82 -370 88 -155 6 -214 -2 -340 -44 -290 -97 -533 -317 -643 -583 l-34 -83
-13 44 c-22 73 -18 222 7 314 77 277 364 521 671 571 l45 7 -40 14 c-58 20
-257 18 -342 -3 -267 -67 -532 -262 -786 -578 -322 -400 -504 -965 -484 -1506
14 -360 91 -669 246 -985 335 -679 966 -1183 1716 -1369 439 -109 942 -96
1370 35 131 40 321 116 445 178 474 237 893 657 1135 1139 102 203 191 451
210 583 l7 46 -60 7 c-206 23 -427 138 -548 284 -93 112 -161 256 -180 377
l-6 45 -899 0 -899 0 0 -425 0 -425 720 0 c396 0 720 -2 720 -4 0 -19 -100
-213 -145 -283 -250 -383 -615 -615 -1060 -674 -125 -16 -393 -6 -510 20 -322
70 -611 247 -818 500 -88 108 -118 153 -176 266 -211 415 -210 921 4 1333 75
143 154 249 266 356 205 195 436 314 729 377 139 30 463 33 607 6 212 -40 459
-148 624 -272 104 -77 258 -237 319 -328 l44 -68 91 3 90 3 7 67 c32 324 302
595 663 666 l87 18 -61 80 c-123 164 -349 372 -534 492 -175 114 -431 226
-630 277 -86 21 -343 65 -387 65 -9 0 -44 -37 -78 -82z"/>
</g>
</svg>
